<svg xmlns="http://www.w3.org/2000/svg" width="68" height="6" viewBox="0 0 68 6" fill="none">
  <path d="M7.65103 3.26202H1.46979V5.4619H0.206787V0H7.65138C8.25325 0 8.73837 0.485116 8.73837 1.09586V2.16652C8.73802 2.76839 8.25325 3.26202 7.65103 3.26202ZM7.47537 1.29636C7.47537 1.16257 7.37494 1.05398 7.24115 1.05398H1.46979V2.19952H7.24115C7.37494 2.19952 7.47537 2.09909 7.47537 1.96531V1.29636Z" fill="black" fill-opacity="0.12"/>
  <path d="M17.5236 5.4619H10.9999C10.3974 5.4619 9.9126 4.97679 9.9126 4.36604V1.09586C9.9126 0.485116 10.3977 0 10.9999 0H17.524C18.1266 0 18.6198 0.485116 18.6198 1.09586V4.36604C18.6195 4.97679 18.1262 5.4619 17.5236 5.4619ZM17.348 1.29636C17.348 1.16257 17.2475 1.05398 17.1137 1.05398H11.4098C11.276 1.05398 11.1756 1.16257 11.1756 1.29636V4.16554C11.1756 4.29933 11.276 4.39976 11.4098 4.39976H17.1141C17.2479 4.39976 17.3483 4.29968 17.3483 4.16554L17.348 1.29636Z" fill="black" fill-opacity="0.12"/>
  <path d="M27.3884 5.4619V5.07722C27.3884 3.84757 26.8614 3.26202 25.7825 3.26202H21.3413V5.4619H20.0786V0H27.4476C28.058 0 28.5431 0.485116 28.5431 1.09586V2.16652C28.5431 2.59273 28.2592 2.93589 27.8738 3.06152C28.4175 3.4462 28.6521 4.10698 28.6521 4.96011V5.4619H27.3884ZM27.2798 1.29636C27.2798 1.16257 27.1793 1.05398 27.0374 1.05398H21.3413V2.19952H27.0374C27.1797 2.19952 27.2798 2.09909 27.2798 1.96531V1.29636Z" fill="black" fill-opacity="0.12"/>
  <path d="M37.4798 5.4619H30.0352V4.39976H37.0699C37.2037 4.39976 37.3041 4.29968 37.3041 4.16554V3.49624C37.3041 3.36245 37.2037 3.26167 37.0699 3.26167H31.1225C30.5206 3.26167 30.0352 2.76839 30.0352 2.16617V1.09586C30.0352 0.485116 30.5206 0 31.1225 0H38.3996V1.05398H31.5324C31.3986 1.05398 31.2982 1.16257 31.2982 1.29636V1.96566C31.2982 2.09945 31.3986 2.19988 31.5324 2.19988H37.4794C38.0813 2.19988 38.5664 2.69351 38.5664 3.29574V4.3664C38.5667 4.97679 38.0816 5.4619 37.4798 5.4619Z" fill="black" fill-opacity="0.12"/>
  <path d="M41.121 5.4619C40.5185 5.4619 40.0337 4.97679 40.0337 4.36604V1.09586C40.0337 0.485116 40.5188 0 41.121 0H48.2306V1.05398H41.5309C41.3971 1.05398 41.2967 1.16257 41.2967 1.29636V4.16554C41.2967 4.29933 41.3971 4.39976 41.5309 4.39976H48.2306V5.4619H41.121Z" fill="black" fill-opacity="0.12"/>
  <path d="M56.4808 5.4619V3.26202H50.8184V5.4619H49.5554V0H50.8184V2.19952H56.4808V0H57.7438V5.4619H56.4808Z" fill="black" fill-opacity="0.12"/>
  <path d="M59.2612 5.4619V0H67.7928V1.05398H60.5246V2.19952H67.626V3.26167H60.5246V4.3994H67.7928V5.46155H59.2612V5.4619Z" fill="black" fill-opacity="0.12"/>
</svg>
