<svg xmlns="http://www.w3.org/2000/svg" width="112" height="10" viewBox="0 0 112 10">
  <path d="M12.3362 5.40564H2.09298V9.05115H0V0H12.3368C13.3341 0 14.1381 0.803907 14.1381 1.81599V3.59023C14.1375 4.58762 13.3341 5.40564 12.3362 5.40564ZM12.0451 2.14826C12.0451 1.92655 11.8786 1.7466 11.6569 1.7466H2.09298V3.64493H11.6569C11.8786 3.64493 12.0451 3.4785 12.0451 3.25679V2.14826Z" fill="white"/>
  <path d="M28.6966 9.05115H17.8859C16.8873 9.05115 16.084 8.24724 16.084 7.23516V1.81599C16.084 0.803907 16.8879 0 17.8859 0H28.6971C29.6957 0 30.5131 0.803907 30.5131 1.81599V7.23516C30.5125 8.24724 29.6951 9.05115 28.6966 9.05115ZM28.4055 2.14826C28.4055 1.92655 28.239 1.7466 28.0173 1.7466H18.5651C18.3434 1.7466 18.177 1.92655 18.177 2.14826V6.90289C18.177 7.1246 18.3434 7.29103 18.5651 7.29103H28.0179C28.2396 7.29103 28.406 7.12519 28.406 6.90289L28.4055 2.14826Z" fill="white"/>
  <path d="M45.0441 9.05115V8.41367C45.0441 6.37597 44.1708 5.40564 42.383 5.40564H35.0232V9.05115H32.9308V0H45.1423C46.1538 0 46.9577 0.803907 46.9577 1.81599V3.59023C46.9577 4.29652 46.4872 4.86519 45.8486 5.07337C46.7495 5.71085 47.1382 6.80586 47.1382 8.21961V9.05115H45.0441ZM44.8641 2.14826C44.8641 1.92655 44.6977 1.7466 44.4625 1.7466H35.0232V3.64493H44.4625C44.6983 3.64493 44.8641 3.4785 44.8641 3.25679V2.14826Z" fill="white"/>
  <path d="M61.7668 9.05115H49.43V7.29103H61.0875C61.3092 7.29103 61.4757 7.12519 61.4757 6.90289V5.79377C61.4757 5.57207 61.3092 5.40505 61.0875 5.40505H51.2319C50.2345 5.40505 49.43 4.58762 49.43 3.58965V1.81599C49.43 0.803907 50.2345 0 51.2319 0H63.2911V1.7466H51.9111C51.6894 1.7466 51.523 1.92655 51.523 2.14826V3.25738C51.523 3.47909 51.6894 3.64551 51.9111 3.64551H61.7662C62.7635 3.64551 63.5675 4.46353 63.5675 5.46151V7.23575C63.568 8.24725 62.7641 9.05115 61.7668 9.05115Z" fill="white"/>
  <path d="M67.801 9.05115C66.8025 9.05115 65.9991 8.24724 65.9991 7.23516V1.81599C65.9991 0.803907 66.8031 0 67.801 0H79.5826V1.7466H68.4803C68.2586 1.7466 68.0921 1.92655 68.0921 2.14826V6.90289C68.0921 7.1246 68.2586 7.29103 68.4803 7.29103H79.5826V9.05115H67.801Z" fill="white"/>
  <path d="M93.2544 9.05115V5.40564H83.8709V9.05115H81.778V0H83.8709V3.64493H93.2544V0H95.3473V9.05115H93.2544Z" fill="white"/>
  <path d="M97.8619 9.05115V0H112V1.7466H99.9555V3.64493H111.724V5.40505H99.9555V7.29044H112V9.05056H97.8619V9.05115Z" fill="white"/>
</svg>
